<svg height="512pt" viewBox="0 0 512 512" width="512pt" xmlns="http://www.w3.org/2000/svg"><path d="m437.019531 74.980469c-48.351562-48.351563-112.640625-74.980469-181.019531-74.980469s-132.667969 26.628906-181.019531 74.980469c-48.351563 48.351562-74.980469 112.640625-74.980469 181.019531s26.628906 132.667969 74.980469 181.019531c48.351562 48.351563 112.640625 74.980469 181.019531 74.980469s132.667969-26.628906 181.019531-74.980469c48.351563-48.351562 74.980469-112.640625 74.980469-181.019531s-26.628906-132.667969-74.980469-181.019531zm0 0" fill="#fccf53"/><path d="m437.019531 74.980469c-48.351562-48.351563-112.640625-74.980469-181.019531-74.980469v512c68.378906 0 132.667969-26.628906 181.019531-74.980469 48.351563-48.351562 74.980469-112.640625 74.980469-181.019531s-26.628906-132.667969-74.980469-181.019531zm0 0" fill="#ff9f00"/><path d="m361.625 266.300781c35.789062-43.359375 6.628906-109.769531-49.570312-111.398437-.769532-.019532-1.546876-.03125-2.324219-.03125-20.769531 0-39.652344 8.046875-53.730469 21.175781-14.078125-13.128906-32.960938-21.175781-53.730469-21.175781-.777343 0-1.554687.011718-2.324219.03125-56.199218 1.628906-85.359374 68.039062-49.570312 111.398437l82.488281 99.929688c6 7.265625 14.566407 10.902343 23.136719 10.902343 8.566406 0 17.136719-3.636718 23.136719-10.902343zm0 0" fill="#ff3d9e"/><path d="m361.625 266.300781c35.789062-43.359375 6.628906-109.769531-49.570312-111.398437-.769532-.019532-1.546876-.03125-2.324219-.03125-20.769531 0-39.652344 8.046875-53.730469 21.175781v201.085937c8.566406 0 17.136719-3.636718 23.136719-10.902343zm0 0" fill="#a32464"/></svg>