<svg height="512pt" viewBox="0 0 512 512" width="512pt" xmlns="http://www.w3.org/2000/svg"><path d="m312.492188 129.90625c-.917969-.023438-1.835938-.039062-2.761719-.039062-19.390625 0-38.054688 5.9375-53.730469 16.921874-15.671875-10.984374-34.335938-16.921874-53.730469-16.921874-.921875 0-1.84375.015624-2.757812.039062-31.46875.914062-59.152344 19.40625-72.246094 48.269531-13.304687 29.332031-8.882813 62.925781 11.542969 87.671875l82.488281 99.929688c8.578125 10.394531 21.226563 16.355468 34.703125 16.355468s26.125-5.960937 34.703125-16.355468l82.488281-99.929688c20.425782-24.746094 24.851563-58.339844 11.542969-87.671875-13.089844-28.863281-40.773437-47.355469-72.242187-48.269531zm37.5625 116.84375-82.488282 99.929688c-3.914062 4.742187-8.925781 5.453124-11.566406 5.453124-2.636719 0-7.652344-.710937-11.566406-5.453124l-82.488282-99.929688c-13.074218-15.839844-15.894531-37.367188-7.359374-56.183594 8.445312-18.617187 25.566406-30.085937 45.796874-30.671875.625-.015625 1.253907-.027343 1.886719-.027343 16.195313 0 31.644531 6.09375 43.5 17.148437 5.761719 5.375 14.699219 5.375 20.460938 0 11.855469-11.058594 27.304687-17.148437 43.5-17.148437.632812 0 1.261719.011718 1.890625.027343 20.226562.585938 37.347656 12.054688 45.792968 30.671875 8.535157 18.816406 5.714844 40.34375-7.359374 56.183594zm0 0"/><path d="m437.019531 74.980469c-48.351562-48.351563-112.640625-74.980469-181.019531-74.980469s-132.667969 26.628906-181.019531 74.980469c-48.351563 48.351562-74.980469 112.640625-74.980469 181.019531s26.628906 132.667969 74.980469 181.019531c48.351562 48.351563 112.640625 74.980469 181.019531 74.980469s132.667969-26.628906 181.019531-74.980469c48.351563-48.351562 74.980469-112.640625 74.980469-181.019531s-26.628906-132.667969-74.980469-181.019531zm-181.019531 407.019531c-124.617188 0-226-101.382812-226-226s101.382812-226 226-226 226 101.382812 226 226-101.382812 226-226 226zm0 0"/></svg>